<svg xmlns="http://www.w3.org/2000/svg" width="30" viewBox="0 0 30 30" height="30" version="1.0"><defs><clipPath id="a"><path d="M 3.386719 0 L 26.613281 0 L 26.613281 29.03125 L 3.386719 29.03125 Z M 3.386719 0"/></clipPath><clipPath id="b"><path d="M 10 5.414062 L 17 5.414062 L 17 13.398438 L 10 13.398438 Z M 10 5.414062"/></clipPath><clipPath id="c"><path d="M 15 8 L 17.167969 8 L 17.167969 12 L 15 12 Z M 15 8"/></clipPath><clipPath id="d"><path d="M 10 5.414062 L 11 5.414062 L 11 13.398438 L 10 13.398438 Z M 10 5.414062"/></clipPath><clipPath id="e"><path d="M 9.910156 5.414062 L 17 5.414062 L 17 13.398438 L 9.910156 13.398438 Z M 9.910156 5.414062"/></clipPath></defs><g clip-path="url(#a)"><path fill="grey" d="M 4.546875 0 C 3.964844 0 3.492188 0.472656 3.492188 1.054688 L 3.492188 27.976562 C 3.492188 28.558594 3.964844 29.03125 4.546875 29.03125 L 8.769531 29.03125 C 9.355469 29.03125 9.828125 28.558594 9.828125 27.976562 L 9.828125 18.476562 L 16.425781 18.476562 C 21.519531 18.476562 25.664062 14.332031 25.664062 9.238281 C 25.664062 4.144531 21.519531 0 16.425781 0 Z M 4.546875 1.054688 L 16.425781 1.054688 C 20.925781 1.054688 24.605469 4.738281 24.605469 9.238281 C 24.605469 13.738281 20.925781 17.417969 16.425781 17.417969 L 8.769531 17.417969 L 8.769531 27.976562 L 4.546875 27.976562 Z M 8.769531 3.167969 L 8.769531 15.308594 L 15.320312 15.308594 C 18.117188 15.308594 20.382812 12.589844 20.382812 9.238281 C 20.382812 5.886719 18.117188 3.167969 15.320312 3.167969 Z M 21.105469 4.078125 C 20.96875 4.078125 20.832031 4.125 20.726562 4.222656 C 20.515625 4.425781 20.507812 4.757812 20.707031 4.96875 C 21.203125 5.492188 21.609375 6.320312 21.753906 6.871094 C 21.8125 7.109375 22.027344 7.265625 22.261719 7.265625 C 22.304688 7.265625 22.351562 7.261719 22.394531 7.25 C 22.675781 7.175781 22.847656 6.886719 22.773438 6.605469 C 22.5625 5.796875 22.027344 4.828125 21.472656 4.242188 C 21.375 4.136719 21.238281 4.082031 21.105469 4.078125 Z M 9.828125 4.222656 L 15.320312 4.222656 C 17.53125 4.222656 19.328125 6.472656 19.328125 9.238281 C 19.328125 12.003906 17.53125 14.253906 15.320312 14.253906 L 9.828125 14.253906 Z M 22.539062 8.234375 C 22.246094 8.234375 22.011719 8.472656 22.015625 8.765625 C 22.027344 10.644531 21.464844 12.144531 20.933594 12.921875 C 20.765625 13.160156 20.828125 13.488281 21.070312 13.652344 C 21.160156 13.71875 21.265625 13.75 21.367188 13.75 C 21.535156 13.75 21.703125 13.667969 21.804688 13.519531 C 22.425781 12.609375 23.085938 10.882812 23.070312 8.757812 C 23.066406 8.464844 22.832031 8.234375 22.542969 8.234375 Z M 25.003906 15.367188 C 24.871094 15.386719 24.746094 15.460938 24.660156 15.578125 C 24.484375 15.8125 24.535156 16.140625 24.769531 16.316406 L 25.613281 16.945312 C 25.847656 17.117188 26.179688 17.070312 26.351562 16.835938 C 26.527344 16.601562 26.476562 16.269531 26.246094 16.097656 L 25.398438 15.46875 C 25.28125 15.378906 25.140625 15.347656 25.003906 15.367188 Z M 23.375 17.1875 C 23.238281 17.175781 23.101562 17.210938 22.988281 17.304688 C 22.761719 17.488281 22.726562 17.820312 22.914062 18.046875 L 23.582031 18.863281 C 23.765625 19.089844 24.097656 19.125 24.324219 18.9375 C 24.546875 18.753906 24.582031 18.421875 24.398438 18.195312 L 23.730469 17.378906 C 23.636719 17.265625 23.507812 17.199219 23.375 17.1875 Z M 21.148438 18.519531 C 21.078125 18.523438 21.011719 18.539062 20.945312 18.570312 C 20.679688 18.695312 20.566406 19.007812 20.691406 19.273438 L 21.136719 20.230469 C 21.261719 20.492188 21.574219 20.605469 21.839844 20.480469 C 22.105469 20.359375 22.21875 20.042969 22.09375 19.78125 L 21.644531 18.824219 C 21.554688 18.625 21.355469 18.511719 21.148438 18.519531 Z M 18.652344 19.300781 C 18.367188 19.355469 18.179688 19.632812 18.238281 19.917969 L 18.4375 20.957031 C 18.492188 21.242188 18.769531 21.429688 19.054688 21.375 C 19.339844 21.316406 19.527344 21.039062 19.472656 20.753906 L 19.273438 19.71875 C 19.21875 19.433594 18.941406 19.246094 18.652344 19.300781 Z M 16.253906 19.449219 C 15.964844 19.433594 15.714844 19.65625 15.699219 19.945312 L 15.640625 21 C 15.625 21.292969 15.847656 21.539062 16.136719 21.558594 C 16.429688 21.574219 16.679688 21.347656 16.695312 21.058594 L 16.753906 20.003906 C 16.769531 19.714844 16.546875 19.464844 16.253906 19.449219 Z M 16.253906 19.449219"/></g><g clip-path="url(#b)"><path d="M 10.199219 13.25 C 10.121094 13.25 10.054688 13.1875 10.054688 13.105469 L 10.054688 5.707031 C 10.054688 5.625 10.121094 5.5625 10.199219 5.5625 L 13.511719 5.5625 C 14.648438 5.5625 15.570312 6.472656 15.570312 7.59375 C 15.570312 8.234375 15.265625 8.832031 14.753906 9.214844 C 15.503906 9.539062 16.007812 10.292969 16.007812 11.148438 C 16.007812 12.308594 15.082031 13.25 13.945312 13.25 Z M 11.578125 9.769531 C 11.539062 9.769531 11.507812 9.800781 11.507812 9.839844 L 11.507812 12.308594 C 11.507812 12.347656 11.539062 12.378906 11.578125 12.378906 L 13.1875 12.378906 C 13.902344 12.378906 14.496094 11.84375 14.542969 11.160156 C 14.566406 10.796875 14.441406 10.449219 14.191406 10.183594 C 13.941406 9.914062 13.601562 9.769531 13.238281 9.769531 Z M 11.578125 6.433594 C 11.539062 6.433594 11.507812 6.464844 11.507812 6.503906 L 11.507812 8.824219 C 11.507812 8.867188 11.539062 8.898438 11.578125 8.898438 L 12.800781 8.898438 C 13.523438 8.898438 14.109375 8.34375 14.109375 7.664062 C 14.109375 6.984375 13.523438 6.433594 12.800781 6.433594 Z M 11.578125 6.433594"/></g><g clip-path="url(#c)"><path fill="#8D6C9F" d="M 16.222656 8.863281 C 16.167969 8.804688 16.074219 8.804688 16.019531 8.863281 L 15.8125 9.066406 C 15.757812 9.125 15.757812 9.214844 15.8125 9.273438 C 15.871094 9.328125 15.960938 9.328125 16.019531 9.273438 L 16.222656 9.066406 C 16.28125 9.011719 16.28125 8.917969 16.222656 8.863281 Z M 16.714844 9.5 C 16.675781 9.429688 16.585938 9.40625 16.515625 9.449219 L 16.265625 9.597656 C 16.199219 9.640625 16.175781 9.726562 16.214844 9.796875 C 16.257812 9.867188 16.347656 9.886719 16.414062 9.847656 L 16.664062 9.699219 C 16.734375 9.65625 16.757812 9.566406 16.714844 9.5 Z M 17.035156 10.234375 C 17.011719 10.160156 16.929688 10.117188 16.855469 10.136719 L 16.578125 10.222656 C 16.5 10.246094 16.457031 10.328125 16.480469 10.402344 C 16.503906 10.480469 16.582031 10.523438 16.660156 10.5 L 16.9375 10.417969 C 17.015625 10.394531 17.058594 10.3125 17.035156 10.234375 Z M 17.167969 11.027344 C 17.164062 10.949219 17.09375 10.886719 17.015625 10.890625 L 16.726562 10.902344 C 16.644531 10.90625 16.582031 10.976562 16.585938 11.054688 C 16.589844 11.132812 16.65625 11.195312 16.738281 11.191406 L 17.027344 11.179688 C 17.109375 11.175781 17.171875 11.109375 17.167969 11.027344 Z M 17.097656 11.828125 C 17.117188 11.75 17.066406 11.675781 16.988281 11.65625 L 16.703125 11.601562 C 16.625 11.585938 16.546875 11.632812 16.53125 11.714844 C 16.515625 11.792969 16.566406 11.867188 16.644531 11.882812 L 16.929688 11.941406 C 17.007812 11.957031 17.082031 11.90625 17.097656 11.828125 Z M 17.097656 11.828125"/></g><path d="M 14.613281 8.554688 C 14.769531 8.289062 14.835938 7.980469 14.835938 7.664062 C 14.835938 7.230469 14.679688 6.824219 14.417969 6.484375 C 14.148438 6.140625 13.25 5.851562 13.128906 6.457031 C 13.695312 6.570312 14.121094 7.066406 14.121094 7.664062 C 14.121094 7.679688 14.117188 7.695312 14.117188 7.710938 C 14.117188 7.71875 14.121094 7.730469 14.121094 7.738281 C 14.121094 7.8125 14.101562 7.90625 14.070312 8.003906 C 14.054688 8.066406 14.03125 8.125 14.003906 8.183594 C 13.953125 8.296875 13.894531 8.402344 13.828125 8.464844 C 13.824219 8.46875 13.816406 8.476562 13.808594 8.480469 C 13.683594 8.621094 13.53125 8.734375 13.351562 8.804688 C 13.484375 9.1875 14.375 8.964844 14.613281 8.554688 Z M 13.667969 9.820312 C 14.179688 9.980469 14.554688 10.480469 14.554688 11.074219 C 14.554688 11.742188 14.082031 12.289062 13.472656 12.371094 C 13.472656 12.371094 13.472656 12.375 13.472656 12.375 C 13.519531 12.652344 14.441406 12.726562 14.808594 12.355469 C 15.105469 12.058594 15.238281 11.632812 15.265625 11.207031 C 15.292969 10.808594 15.234375 10.398438 15.015625 10.078125 C 14.6875 9.601562 13.835938 9.480469 13.667969 9.820312 Z M 13.667969 9.820312"/><path fill="#8D6C9F" d="M 14.597656 8.769531 C 14.566406 8.769531 14.535156 8.761719 14.511719 8.738281 C 14.445312 8.691406 14.433594 8.601562 14.480469 8.535156 C 14.640625 8.332031 14.789062 7.941406 14.742188 7.460938 C 14.734375 7.382812 14.792969 7.3125 14.875 7.304688 C 14.953125 7.296875 15.023438 7.355469 15.03125 7.433594 C 15.085938 7.996094 14.902344 8.460938 14.714844 8.710938 C 14.683594 8.75 14.640625 8.769531 14.597656 8.769531 Z M 14.75 7.074219 C 14.691406 7.074219 14.640625 7.039062 14.617188 6.984375 C 14.554688 6.847656 14.402344 6.640625 14.226562 6.515625 C 14.160156 6.46875 14.144531 6.375 14.191406 6.3125 C 14.238281 6.246094 14.328125 6.230469 14.394531 6.277344 C 14.59375 6.417969 14.792969 6.664062 14.882812 6.871094 C 14.914062 6.945312 14.878906 7.03125 14.804688 7.0625 C 14.789062 7.070312 14.769531 7.074219 14.75 7.074219 Z M 14.75 7.074219"/><g clip-path="url(#d)"><path d="M 10.019531 5.695312 L 10.019531 13.105469 C 10.441406 13.101562 10.78125 12.761719 10.78125 12.339844 L 10.78125 6.460938 C 10.78125 6.039062 10.441406 5.699219 10.019531 5.695312 Z M 10.019531 5.695312"/></g><g clip-path="url(#e)"><path fill="#8D6C9F" d="M 13.511719 5.707031 C 14.566406 5.707031 15.425781 6.550781 15.425781 7.59375 C 15.425781 8.308594 15.019531 8.933594 14.421875 9.253906 C 15.25 9.46875 15.863281 10.234375 15.863281 11.148438 C 15.863281 12.230469 15.003906 13.105469 13.945312 13.105469 L 10.199219 13.105469 L 10.199219 5.707031 L 13.511719 5.707031 M 11.578125 9.042969 L 12.800781 9.042969 C 13.605469 9.042969 14.253906 8.425781 14.253906 7.664062 C 14.253906 6.902344 13.605469 6.289062 12.800781 6.289062 L 11.578125 6.289062 C 11.460938 6.289062 11.363281 6.382812 11.363281 6.503906 L 11.363281 8.824219 C 11.363281 8.945312 11.460938 9.042969 11.578125 9.042969 M 11.578125 12.527344 L 13.1875 12.527344 C 13.960938 12.527344 14.636719 11.941406 14.6875 11.171875 C 14.742188 10.328125 14.070312 9.625 13.238281 9.625 L 11.578125 9.625 C 11.460938 9.625 11.363281 9.722656 11.363281 9.839844 L 11.363281 12.308594 C 11.363281 12.429688 11.460938 12.527344 11.578125 12.527344 M 13.511719 5.417969 L 10.199219 5.417969 C 10.039062 5.417969 9.910156 5.546875 9.910156 5.707031 L 9.910156 13.105469 C 9.910156 13.265625 10.039062 13.394531 10.199219 13.394531 L 13.945312 13.394531 C 15.164062 13.394531 16.152344 12.386719 16.152344 11.148438 C 16.152344 10.316406 15.703125 9.570312 15.015625 9.183594 C 15.457031 8.777344 15.714844 8.203125 15.714844 7.59375 C 15.714844 6.394531 14.726562 5.417969 13.511719 5.417969 Z M 11.652344 6.578125 L 12.800781 6.578125 C 13.441406 6.578125 13.964844 7.066406 13.964844 7.664062 C 13.964844 8.265625 13.441406 8.753906 12.800781 8.753906 L 11.652344 8.753906 Z M 11.652344 9.914062 L 13.238281 9.914062 C 13.5625 9.914062 13.863281 10.042969 14.085938 10.28125 C 14.308594 10.519531 14.417969 10.828125 14.398438 11.152344 C 14.359375 11.761719 13.828125 12.234375 13.1875 12.234375 L 11.652344 12.234375 Z M 11.652344 9.914062"/></g></svg>